<?xml version="1.0" encoding="utf-8"?>
<!-- Generator: Adobe Illustrator 16.0.0, SVG Export Plug-In . SVG Version: 6.00 Build 0)  -->
<!DOCTYPE svg PUBLIC "-//W3C//DTD SVG 1.1//EN" "http://www.w3.org/Graphics/SVG/1.1/DTD/svg11.dtd">
<svg version="1.1" id="Layer_1" xmlns="http://www.w3.org/2000/svg" xmlns:xlink="http://www.w3.org/1999/xlink" x="0px" y="0px"
	 width="501.01px" height="302.865px" viewBox="0 0 501.01 302.865" enable-background="new 0 0 501.01 302.865"
	 xml:space="preserve">
<g>
	<path fill="#FFFFFF" d="M426.167,121.913c-6.39-35.52-37.59-62.49-75.11-62.49c-4.17,0-8.25,0.33-12.239,0.98
		c-27.681-36.39-71.551-59.9-120.94-59.9c-74.07,0-135.72,52.86-148.99,122.75c-39.34,10.16-68.39,45.75-68.39,88.09
		c0,50.27,40.94,91.02,91.44,91.02h317.14c50.5,0,91.43-40.75,91.43-91.02C500.507,166.893,468.497,129.873,426.167,121.913z
		 M262.507,66.192l-3.5,119.46h-17l-3.5-119.46H262.507z M250.507,236.673c-8.75,0-14.75-6.721-14.75-15.431
		c0-8.96,6.25-15.43,14.75-15.43c9,0,14.75,6.47,14.75,15.43C265.257,229.952,259.507,236.673,250.507,236.673z"/>
</g>
</svg>
